<?xml version="1.0" standalone="no"?><!DOCTYPE svg PUBLIC "-//W3C//DTD SVG 1.1//EN" "http://www.w3.org/Graphics/SVG/1.1/DTD/svg11.dtd"><svg class="icon" width="200px" height="200.00px" viewBox="0 0 1024 1024" version="1.1" xmlns="http://www.w3.org/2000/svg"><path d="M172.719218 477.809778c-57.173333 0-103.651556-61.098667-103.651556-136.533334 0-68.437333 38.286222-125.212444 88.177778-135.054222C204.235662 86.072889 332.576996-0.056889 483.560107-0.056889c151.096889 0 279.495111 86.243556 326.428444 206.279111 49.891556 9.841778 88.177778 66.616889 88.177778 135.054222 0 75.434667-46.478222 136.533333-103.651556 136.533334h-34.531555v-170.666667c0-130.275556-122.197333-238.933333-276.423111-238.933333-154.112 0-276.309333 108.657778-276.309334 238.933333v170.666667h-34.531555z m-170.780445 546.133333a274.033778 274.033778 0 0 1-1.934222-34.133333c0-150.186667 95.459556-281.543111 237.795556-352.824889a415.744 415.744 0 0 0 245.76 79.758222 415.857778 415.857778 0 0 0 245.873777-79.758222c142.336 71.281778 237.795556 202.638222 237.795556 352.824889 0 12.515556-0.682667 23.893333-1.934222 34.133333H1.938773z m481.621334-409.6c-133.461333 0-241.720889-106.951111-241.720889-238.933333 0-131.982222 108.259556-238.933333 241.777778-238.933334s241.834667 106.951111 241.834666 238.933334c0 131.982222-108.316444 238.933333-241.891555 238.933333z" fill="#666666" /></svg>