<?xml version="1.0" standalone="no"?><!DOCTYPE svg PUBLIC "-//W3C//DTD SVG 1.1//EN" "http://www.w3.org/Graphics/SVG/1.1/DTD/svg11.dtd"><svg class="icon" width="200px" height="200.00px" viewBox="0 0 1024 1024" version="1.1" xmlns="http://www.w3.org/2000/svg"><path d="M146.261333 966.997333l1.479111-206.051555c12.344889-125.269333 115.256889-229.376 302.705778-263.111111-62.179556-41.472-103.025778-112.526222-103.025778-200.590223 0-142.279111 106.439111-240.469333 237.738667-240.469333 131.242667 0 237.681778 98.190222 237.681778 240.469333 0 88.064-40.846222 159.118222-103.025778 200.590223 187.505778 33.735111 290.360889 137.841778 302.762667 263.111111l1.422222 206.051555H146.261333z m173.738667-824.32h-9.159111v0.967111c-72.135111 6.883556-127.943111 54.784-127.943111 138.069334 0 83.228444 55.808 143.018667 127.943111 151.665778v2.958222a25.827556 25.827556 0 0 1 18.318222 24.064 25.827556 25.827556 0 0 1-18.318222 24.007111v2.218667c-171.747556 4.664889-245.703111 74.922667-256 171.235555v163.157333c0 14.222222-12.288 25.770667-27.420445 25.770667s-27.420444-11.548444-27.420444-25.770667V795.249778H0.113778l1.080889-146.147556c9.841778-99.271111 50.005333-170.552889 199.907555-197.290666-49.720889-32.824889-73.102222-101.944889-73.102222-171.804445 0-99.384889 74.865778-170.382222 164.579556-185.685333v-3.185778h27.420444c15.132444 0 27.420444 11.548444 27.420444 25.770667s-12.288 25.770667-27.420444 25.770666z" fill="#666666" /></svg>