<?xml version="1.0" standalone="no"?><!DOCTYPE svg PUBLIC "-//W3C//DTD SVG 1.1//EN" "http://www.w3.org/Graphics/SVG/1.1/DTD/svg11.dtd"><svg class="icon" width="200px" height="200.00px" viewBox="0 0 1024 1024" version="1.1" xmlns="http://www.w3.org/2000/svg"><path d="M1016.376889 760.832l-92.444445 85.902222 21.845334 121.287111a22.926222 22.926222 0 0 1-9.728 22.926223 25.6 25.6 0 0 1-25.884445 1.706666l-114.232889-57.287111-114.232888 57.287111a25.372444 25.372444 0 0 1-25.770667-1.763555 22.869333 22.869333 0 0 1-9.784889-22.869334l21.788444-121.287111-92.387555-85.902222a22.471111 22.471111 0 0 1-6.257778-24.007111 24.291556 24.291556 0 0 1 19.854222-15.872l127.715556-17.692445 57.116444-110.364444c8.305778-15.985778 35.726222-15.985778 43.918223 0l57.173333 110.364444 127.715555 17.692445c9.272889 1.251556 16.952889 7.395556 19.911112 15.872a22.755556 22.755556 0 0 1-6.314667 24.007111z m-561.379556-154.453333c-167.822222 0-304.298667-129.706667-304.298666-288.995556C150.698667 157.980444 287.288889 28.273778 454.997333 28.273778c167.822222 0 304.412444 129.706667 304.412445 289.109333 0 159.288889-136.590222 288.995556-304.412445 288.995556z m0 72.305777c87.267556 0 134.940444-23.096889 199.111111-70.144v55.296l-199.054222 45.283556 139.377778 144.725333-14.677333 113.948445H228.977778c-109.340444 0-186.026667-6.030222-229.091556-11.548445a458.524444 458.524444 0 0 1 220.444445-356.408889 390.826667 390.826667 0 0 0 234.666666 78.848z" fill="#666666" /></svg>