<?xml version="1.0" standalone="no"?><!DOCTYPE svg PUBLIC "-//W3C//DTD SVG 1.1//EN" "http://www.w3.org/Graphics/SVG/1.1/DTD/svg11.dtd"><svg class="icon" width="200px" height="200.00px" viewBox="0 0 1024 1024" version="1.1" xmlns="http://www.w3.org/2000/svg"><path d="M148.044438 374.731013v-12.796772h-13.934264v-30.029759h13.934264c0-49.93585 0-99.928574 0.113749-149.921298l27.41353 0.056875v149.864423h13.991138v30.029759h-13.991138v12.796772h-27.527279z m635.23178-176.879831c4.891211 55.054558 3.298724 110.564113-4.663712 165.277424-7.962436 51.528337-21.896699 102.88605-48.513986 149.352553-19.507969 34.067852-47.035248 65.064478-82.866211 86.449306 44.475893 18.256729 87.24555 39.698432 128.081473 63.58574 40.153428 23.602936 78.543745 49.93585 112.042851 80.761853 24.569803 22.692943 46.750875 47.94524 61.70888 76.723759 11.318034 21.612327 18.086105 45.329011 17.631109 69.21632a132.290189 132.290189 0 0 1-13.422392 54.94081c-32.190992 12.967396-65.690098 23.318563-99.416703 32.645988a1361.804078 1361.804078 0 0 1-339.370403 47.035248c47.43337-37.764697 94.582366-75.700018 142.015736-113.350966-18.541101-38.731564-37.821572-77.235631-56.647046-115.967195-22.636068-46.409628-45.385886-92.819256-68.135703-139.228884l34.977844-46.864624c-15.52675 9.668672-34.522848 14.787381-53.462071 14.503009a145.371334 145.371334 0 0 1-60.343891-14.503009c10.63554 16.322994 21.953574 32.361615 32.873486 48.570861 1.364989 1.535613-0.568745 3.298724-0.909993 4.834336-38.731564 83.719329-77.292505 167.495532-115.91032 251.21486l145.257585 110.734737c-156.063748 1.990609-312.639368-24.854176-456.247591-79.624361a211.743927 211.743927 0 0 1 4.094967-67.680708 282.666483 282.666483 0 0 1 59.490773-120.403409 396.927442 396.927442 0 0 1 95.207987-82.126841c52.836451-33.271608 112.327224-57.158917 173.581108-75.017524a405.060501 405.060501 0 0 1-85.425565-93.956746 414.501676 414.501676 0 0 1-52.779577-113.237217 423.772226 423.772226 0 0 1-9.043053-192.122209c-50.220222-21.043581-100.724817-41.689041-151.001913-62.732622C229.943781 91.723283 367.921424 46.735519 505.785319 1.577131c2.331856-0.62562 4.891211-2.331856 7.450565-1.194365l439.583349 136.385156c-15.185503 6.085576-30.826003 11.147411-46.125255 16.77799l-123.41776 44.30527z" fill="#666666" /></svg>