<?xml version="1.0" standalone="no"?><!DOCTYPE svg PUBLIC "-//W3C//DTD SVG 1.1//EN" "http://www.w3.org/Graphics/SVG/1.1/DTD/svg11.dtd"><svg class="icon" width="200px" height="200.00px" viewBox="0 0 1024 1024" version="1.1" xmlns="http://www.w3.org/2000/svg"><path d="M966.357277 955.74576c0 24.437405-5.398961 47.510861-14.719274 68.140578H71.550448a163.503287 163.503287 0 0 1-14.832937-68.140578c0-114.685308 145.033155-185.837938 303.251143-213.685213v-58.820264H100.079697s104.853515-171.743807 108.263386-227.154202c3.353039-55.353563-17.617664-367.584031 151.625571-408.786632 52.79616-5.683117 74.448838-41.14577 108.263386-41.14577 33.87138 0 105.592321-35.462652 216.583603 63.87824 110.991282 99.340892 154.978611 232.098513 151.625571 408.786632 13.525819 95.817359 43.305354 136.281154 43.305354 136.281154s4.660156 30.745665 0 45.408108c-6.024104 18.86795-21.652677 22.732469-21.652677 22.73247h-194.930925v58.820264c158.217988 27.847275 303.194312 98.999905 303.194311 213.685213z m-259.888957-431.46227c13.525819-27.051639 64.958032-29.836366 64.958031-68.197409 0-38.304211-9.490806-69.561357-43.305354-68.083746-33.87138 1.420779-107.638243 16.310547-151.56874-113.605516-16.253716-1.420779-21.652677 0-21.652677 0v68.140577s-27.10847 11.366235-43.362186 0c-16.253716-11.366235-74.392006-67.401772-86.610708-113.548685-18.924781 1.420779-43.305354 0-43.305355 0s2.671065 122.812166-108.320217 181.746094c-20.970703-0.738805-21.652677 0-21.652677 0v68.083746s24.551067 11.479897 108.320217 113.548685c62.286966 68.879382 69.049876 113.548685 151.56874 113.548685 82.575695 0 161.116377-124.176114 194.930926-181.632431z" fill="#666666" /></svg>