<?xml version="1.0" standalone="no"?><!DOCTYPE svg PUBLIC "-//W3C//DTD SVG 1.1//EN" "http://www.w3.org/Graphics/SVG/1.1/DTD/svg11.dtd"><svg class="icon" width="200px" height="200.00px" viewBox="0 0 1024 1024" version="1.1" xmlns="http://www.w3.org/2000/svg"><path d="M768.197973 967.054222a256 256 0 0 1-255.658666-256.455111 256.056889 256.056889 0 0 1 255.658666-256.568889 256.113778 256.113778 0 0 1 255.715556 256.568889 256.113778 256.113778 0 0 1-255.715556 256.455111z m-113.607111-285.013333a28.444444 28.444444 0 0 0-28.387555 28.558222c0 15.701333 12.629333 28.444444 28.387555 28.444445h141.994667v-57.002667h-141.994667z m227.271111 0h-85.276444v57.002667h85.276444a28.444444 28.444444 0 1 0 0-57.002667zM467.82464 527.530667s-7.224889 9.557333-7.224889 37.432889c0 6.314667-52.622222 25.372444-45.169778 31.118222 1.251556 0.967111 2.958222 1.934222 4.323556 2.901333-33.223111 47.104 4.209778 103.537778 4.209778 164.465778 0 78.108444 32.540444 148.650667 84.650666 201.557333-38.855111 1.592889-80.952889 2.730667-130.048 2.730667-116.679111 0-146.147556-4.835556-209.806222-12.970667-230.855111-29.411556-161.336889-102.513778-149.674667-148.650666 15.189333-108.657778 192.113778-159.573333 257.137778-210.033778 7.338667-5.745778 18.659556-18.716444 18.659556-25.031111 0-27.875556-14.165333-43.52-14.165334-43.52S164.322418 454.883556 166.484196 272.384C169.669973 194.901333 211.710862 56.832 369.975751 56.832h8.590222c151.153778 0 200.192 138.069333 203.434667 215.552 2.332444 193.934222-114.346667 255.260444-114.176 255.146667z" fill="#666666" /></svg>