<?xml version="1.0" standalone="no"?><!DOCTYPE svg PUBLIC "-//W3C//DTD SVG 1.1//EN" "http://www.w3.org/Graphics/SVG/1.1/DTD/svg11.dtd"><svg class="icon" width="200px" height="200.00px" viewBox="0 0 1024 1024" version="1.1" xmlns="http://www.w3.org/2000/svg"><path d="M965.737011 956.609785c0 23.921822-5.398036 46.423108-14.830393 66.651536H71.538179a157.111252 157.111252 0 0 1-14.830393-66.651536c0-117.67718 159.327288-188.419859 326.098183-212.625788l-5.5685-112.620073c-25.626465-8.295929-116.654394-121.25693-116.654395-121.25693l-50.002857-24.205929s-4.943464-86.595858 0-121.25693c20.626179-21.762607 50.002858-24.26275 50.002857-24.26275l-2.329678-193.931538s70.004001-156.827145 275.12936-145.462859c62.901322 0.170464 51.764322 31.535893 75.061108 48.468679 23.183143 16.989607 123.302501-15.341786 150.065395 24.262751 26.706072 39.604536 25.001429 266.662967 25.001429 266.662967s29.376679 2.500143 50.002857 24.26275c4.943464 34.661072 0 121.25693 0 121.25693l-50.002857 24.205929s-91.084751 112.961001-116.597573 121.25693v116.824859c156.429395 27.728857 298.823896 97.164644 298.823896 208.421002z m-384.624254-233.36561c-6.477643-14.773572-19.944322-10.284679-19.944322-10.284679H481.391148c-15.000857 3.750214-18.978357 10.796072-18.978357 10.796072v6.364l38.411286 36.877108-54.605393 169.214216v14.773571c24.433215 29.490322 69.038037 50.059679 69.038036 50.05968h11.53475c43.35475-18.410143 71.822287-51.139286 71.822287-51.139287v-11.591571l-53.923536-170.748395 36.422536-38.524929v-5.795786z m38.411286 140.74668l-51.366572-90.630179c-4.488893-0.568214-2.500143 3.125179-2.500143 3.125178l37.3885 115.404323c11.023357 0 16.478214-13.12575 16.478215-13.12575v-14.773572z" fill="#666666" /></svg>