<?xml version="1.0" standalone="no"?><!DOCTYPE svg PUBLIC "-//W3C//DTD SVG 1.1//EN" "http://www.w3.org/Graphics/SVG/1.1/DTD/svg11.dtd"><svg class="icon" width="200px" height="200.00px" viewBox="0 0 1024 1024" version="1.1" xmlns="http://www.w3.org/2000/svg"><path d="M511.829333 228.579556H371.086222c-50.688-4.380444-85.845333 11.776-105.301333 48.526222a65.592889 65.592889 0 0 0-9.898667 34.986666v271.132445c0 32.597333 22.869333 59.221333 50.858667 59.221333s50.801778-26.624 50.801778-59.221333V312.092444h13.539555v643.697778c0 37.091556 27.022222 67.470222 60.074667 67.470222 33.052444 0 60.074667-30.378667 60.074667-67.470222V672.426667h41.187555v283.363555c0 37.091556 27.022222 67.470222 60.131556 67.470222 33.052444 0 60.131556-30.378667 60.131555-67.470222V312.092444h13.425778v271.132445c0 32.597333 22.812444 59.221333 50.858667 59.221333 27.932444 0 50.858667-26.624 50.858666-59.221333V312.092444c0-13.027556-3.754667-25.201778-9.955555-34.986666-19.456-36.750222-54.556444-52.906667-105.187556-48.526222H511.829333z m0-227.896889c65.706667 0 118.897778 51.029333 118.897778 113.948444 0 62.976-53.191111 113.948444-118.897778 113.948445-65.649778 0-118.840889-50.972444-118.840889-113.948445 0-62.919111 53.191111-113.948444 118.840889-113.948444z" fill="#666666" /></svg>