<?xml version="1.0" standalone="no"?><!DOCTYPE svg PUBLIC "-//W3C//DTD SVG 1.1//EN" "http://www.w3.org/Graphics/SVG/1.1/DTD/svg11.dtd"><svg class="icon" width="200px" height="200.00px" viewBox="0 0 1024 1024" version="1.1" xmlns="http://www.w3.org/2000/svg"><path d="M344.213623 250.301005c-9.607284 6.366957-17.963915 15.917393-23.478154 27.741742L206.073391 523.966469c-13.814023 29.504025-5.173153 62.93055 19.15772 74.300116 24.330872 11.312719 55.483484-3.581413 69.240659-33.085438l52.470549-112.388164c-26.49109 121.313274-45.36457 207.437739-56.393049 258.487093l87.204574-0.682174v245.525786c0 37.178482 25.979459 67.592072 57.70055 67.592073 31.777938 0 57.757397-30.41359 57.757397-67.592073V710.597902h39.452396v245.525786c0 37.178482 25.979459 67.592072 57.70055 67.592073 31.72109 0 57.70055-30.41359 57.700549-67.592073V710.597902l87.261422 0.682174c-11.028479-51.049353-29.788264-137.173819-56.393049-258.487093l52.413701 112.388164c13.757175 29.504025 44.966635 44.398157 69.297508 33.085438 24.38772-11.369566 33.02859-44.796092 19.157719-74.300116l-114.662077-245.923722a68.558486 68.558486 0 0 0-23.421307-27.741742c-8.811414-5.798479-44.625548-14.666741-55.938267-16.201632-27.116416-3.638261-52.072614-5.684783-112.842947-5.684784-37.803808 0-75.323378 0.682174-112.899794 5.684784-11.255871 1.534891-47.126853 10.403153-55.824572 16.201632zM512.937989 0.397935a113.979903 113.979903 0 1 1 0 228.016654 114.150447 114.150447 0 0 1-114.150447-114.036751c0-62.93055 51.163049-113.979903 114.150447-113.979903z" fill="#666666" /></svg>